<?xml version="1.0" encoding="utf-8"?>
<svg version="1.1"  xmlns="http://www.w3.org/2000/svg" xmlns:xlink="http://www.w3.org/1999/xlink" 
	 viewBox="0 0 183.4 38" xml:space="preserve">
<g>
	<path fill="#FFFFFF" d="M46.8,28V10.1h3.1l6.7,9.1h-1.5l6.6-9.1h3.1V28h-3.3V13.8l1.3,0.3l-6.8,9h-0.4l-6.6-9l1.1-0.3V28H46.8z"/>
	<path fill="#FFFFFF" d="M74.1,28.3c-1.3,0-2.5-0.3-3.5-0.9s-1.8-1.4-2.4-2.5s-0.8-2.2-0.8-3.5s0.3-2.5,0.9-3.5s1.3-1.8,2.3-2.4
		c1-0.6,2.1-0.9,3.3-0.9c1,0,1.9,0.2,2.7,0.5c0.8,0.3,1.4,0.8,2,1.4c0.5,0.6,1,1.3,1.2,2c0.3,0.8,0.4,1.6,0.4,2.5c0,0.2,0,0.5,0,0.7
		s-0.1,0.4-0.1,0.6H70V20h8.3l-1.5,1.1c0.1-0.7,0.1-1.4-0.1-2s-0.6-1-1.1-1.4c-0.5-0.3-1.1-0.5-1.8-0.5c-0.7,0-1.2,0.2-1.8,0.5
		c-0.5,0.3-0.9,0.8-1.2,1.4s-0.4,1.4-0.3,2.3c-0.1,0.8,0,1.5,0.3,2.1s0.7,1.1,1.2,1.4c0.6,0.3,1.2,0.5,1.9,0.5
		c0.7,0,1.3-0.2,1.8-0.5s0.9-0.7,1.2-1.2l2.5,1.2c-0.3,0.6-0.7,1.2-1.2,1.7s-1.2,0.9-1.9,1.1C75.8,28.2,75,28.3,74.1,28.3z"/>
	<path fill="#FFFFFF" d="M88.7,28.3c-1.3,0-2.4-0.3-3.4-0.9s-1.8-1.4-2.4-2.5c-0.6-1-0.9-2.2-0.9-3.5s0.3-2.4,0.9-3.5
		c0.6-1,1.4-1.8,2.4-2.4c1-0.6,2.1-0.9,3.3-0.9c1,0,1.9,0.2,2.7,0.6s1.4,0.9,1.8,1.6l-0.5,0.6V9.8h3.1V28h-3v-2.5l0.3,0.6
		c-0.4,0.7-1.1,1.2-1.9,1.6C90.5,28.1,89.6,28.3,88.7,28.3z M89,25.4c0.7,0,1.4-0.2,1.9-0.5s1-0.8,1.3-1.4s0.5-1.3,0.5-2
		c0-0.8-0.2-1.4-0.5-2s-0.7-1.1-1.3-1.4c-0.5-0.3-1.2-0.5-1.9-0.5c-0.7,0-1.3,0.2-1.9,0.5s-1,0.8-1.3,1.4s-0.5,1.3-0.5,2
		c0,0.8,0.2,1.4,0.5,2s0.7,1.1,1.3,1.4S88.3,25.4,89,25.4z"/>
	<path fill="#FFFFFF" d="M99,28V10.1h7.5c1.2,0,2.2,0.2,3,0.6c0.8,0.4,1.5,1,1.9,1.7s0.7,1.6,0.7,2.7c0,0.8-0.2,1.6-0.7,2.3
		c-0.4,0.7-1.1,1.3-2.1,1.8v-1.5c0.9,0.3,1.6,0.8,2.1,1.2s0.9,1,1.1,1.7s0.3,1.2,0.3,1.9c0,1.7-0.6,3.1-1.7,4
		c-1.1,1-2.7,1.5-4.7,1.5H99z M102.3,17.1h4.4c0.7,0,1.2-0.2,1.6-0.6s0.6-0.9,0.6-1.5s-0.2-1.1-0.6-1.5s-0.9-0.6-1.6-0.6h-4.4V17.1z
		 M102.3,25.1h4.6c0.8,0,1.5-0.2,2-0.7s0.8-1.1,0.8-1.9s-0.3-1.4-0.8-1.9s-1.2-0.7-2-0.7h-4.6V25.1z"/>
	<path fill="#FFFFFF" d="M121.7,28.3c-1.3,0-2.4-0.3-3.5-0.9c-1-0.6-1.9-1.4-2.5-2.4s-0.9-2.2-0.9-3.5s0.3-2.5,0.9-3.5s1.4-1.8,2.5-2.4
		c1-0.6,2.2-0.9,3.5-0.9s2.4,0.3,3.5,0.9c1,0.6,1.9,1.4,2.5,2.4c0.6,1,0.9,2.2,0.9,3.5s-0.3,2.5-0.9,3.5s-1.5,1.8-2.5,2.4
		S123,28.3,121.7,28.3z M121.7,25.4c0.7,0,1.3-0.2,1.9-0.5s1-0.8,1.3-1.4s0.5-1.3,0.5-2c0-0.8-0.2-1.4-0.5-2s-0.7-1-1.3-1.4
		c-0.5-0.3-1.2-0.5-1.9-0.5c-0.7,0-1.4,0.2-1.9,0.5s-1,0.8-1.3,1.4s-0.5,1.3-0.5,2c0,0.8,0.2,1.4,0.5,2s0.7,1.1,1.3,1.4
		S121,25.4,121.7,25.4z"/>
	<path fill="#FFFFFF" d="M137.4,28.3c-1.3,0-2.4-0.3-3.5-0.9c-1-0.6-1.9-1.4-2.5-2.4s-0.9-2.2-0.9-3.5s0.3-2.5,0.9-3.5
		c0.6-1,1.4-1.8,2.5-2.4c1-0.6,2.2-0.9,3.5-0.9s2.4,0.3,3.5,0.9c1,0.6,1.9,1.4,2.5,2.4s0.9,2.2,0.9,3.5S144,24,143.4,25
		c-0.6,1-1.5,1.8-2.5,2.4S138.6,28.3,137.4,28.3z M137.4,25.4c0.7,0,1.3-0.2,1.9-0.5s1-0.8,1.3-1.4s0.5-1.3,0.5-2
		c0-0.8-0.2-1.4-0.5-2s-0.7-1-1.3-1.4c-0.5-0.3-1.2-0.5-1.9-0.5s-1.4,0.2-1.9,0.5s-1,0.8-1.3,1.4s-0.5,1.3-0.5,2
		c0,0.8,0.2,1.4,0.5,2s0.7,1.1,1.3,1.4S136.7,25.4,137.4,25.4z"/>
	<path fill="#FFFFFF" d="M146.6,28V9.8h3.1v11.9l-1.2-0.4l6.1-6.4h3.9l-4.8,5.3l4.9,7.8H155l-4.3-6.8l1.9-0.4l-3.9,4.2l1-1.9V28H146.6z
		"/>
	<path fill="#FFFFFF" d="M166.4,28.3c-1.3,0-2.5-0.3-3.5-0.9s-1.8-1.4-2.4-2.5c-0.6-1-0.8-2.2-0.8-3.5s0.3-2.5,0.9-3.5
		c0.6-1,1.3-1.8,2.3-2.4c1-0.6,2.1-0.9,3.3-0.9c1,0,1.9,0.2,2.7,0.5s1.4,0.8,2,1.4c0.5,0.6,1,1.3,1.2,2c0.3,0.8,0.4,1.6,0.4,2.5
		c0,0.2,0,0.5,0,0.7s-0.1,0.4-0.1,0.6h-10.1V20h8.3l-1.5,1.1c0.1-0.7,0.1-1.4-0.1-2c-0.2-0.6-0.6-1-1.1-1.4s-1.1-0.5-1.8-0.5
		s-1.2,0.2-1.8,0.5c-0.5,0.3-0.9,0.8-1.2,1.4s-0.4,1.4-0.3,2.3c-0.1,0.8,0,1.5,0.3,2.1s0.7,1.1,1.2,1.4c0.6,0.3,1.2,0.5,1.9,0.5
		s1.3-0.2,1.8-0.5s0.9-0.7,1.2-1.2l2.5,1.2c-0.3,0.6-0.7,1.2-1.2,1.7s-1.2,0.9-1.9,1.1C168.1,28.2,167.3,28.3,166.4,28.3z"/>
	<path fill="#FFFFFF" d="M174.9,28V14.9h3v2.9l-0.2-0.4c0.3-1,0.8-1.7,1.4-2c0.6-0.4,1.4-0.6,2.3-0.6h0.8v2.8H181
		c-0.9,0-1.6,0.3-2.2,0.8c-0.5,0.6-0.8,1.3-0.8,2.3V28H174.9z"/>
</g>
<g id="Heart_Rate">
	<path fill="#FFFFFF" d="M20.9,13.1L19,13.2l-1.1,2.5L17,17.9h-1.4V20h2.1l1-0.7l0.4-1.1l0.8-2.1l0.8,1.7l0.2-0.5l1-0.6h0.7L20.9,13.1z
		 M33.8,9.7c-1.2-2-3.3-3.4-5.6-3.6c-0.9-0.1-1.9,0-2.8,0.3c-1.5,0.5-2.9,1.2-4.1,2.2L21,8.9l-0.1-0.1c-0.6-0.5-1.3-1-2-1.4
		c-1.5-0.9-3.3-1.4-5.1-1.3c-0.5,0-1,0.1-1.5,0.3c-1.1,0.4-2.1,1.1-2.9,1.9C8.9,8.8,8.5,9.2,8.1,9.7c-4.1,5.9,4.2,14.7,9.1,19.2
		c0.6,0.5,1.1,1.1,1.6,1.4c0.7,0.6,1.2,1,1.5,1.2h1.3C23.5,30.2,39.2,17.4,33.8,9.7z M31.8,16.8h-5.5l-1,0.6L24.6,19l-0.4,0.8
		l-1.5-3l-1.9-3.7l-1.9,0.1l-1.1,2.5L17,17.9h-1.4V20h2.1l1-0.7l0.4-1.1l0.8-2.1l0.8,1.7l1.2,2.4l1.2,2.4H25l2-3.6h3.6
		c-2.7,3.9-6,7.4-9.6,10.4L20.5,29c-0.5-0.4-1.1-0.9-1.6-1.4C16.3,25.2,14,22.7,12,20c-0.2-0.3-0.5-0.7-0.7-1c-1.9-3-2.9-6-1.4-8
		c0.6-0.9,1.4-1.7,2.4-2.2c0.5-0.3,1.1-0.4,1.6-0.4c0.1,0,0.3,0,0.4,0c0.7,0,1.4,0.1,2,0.4L16.8,9c0.7,0.3,1.4,0.7,2,1.2
		c0.5,0.3,1,0.7,1.4,1.1h1.5c1-1,2.3-1.8,3.6-2.4C26.1,8.5,27,8.4,28,8.4c0.1,0,0.2,0,0.3,0c1.6,0.3,2.9,1.3,3.7,2.7
		C33.2,12.5,32.9,14.6,31.8,16.8z M20.9,13.1L19,13.2l-1.1,2.5L17,17.9h-1.4V20h2.1l1-0.7l0.4-1.1l0.8-2.1l0.8,1.7l0.2-0.5l1-0.6
		h0.7L20.9,13.1z"/>
	<path fill="#FF005C" d="M30.6,19c-2.7,3.9-6,7.4-9.6,10.4L20.5,29c3.3-2.9,6.1-6.2,8.4-10H30.6z"/>
	<path fill="#FF005C" d="M31.8,16.8h-1.9c1-2.5,1.1-5-0.4-7.1c-0.4-0.5-0.7-1-1.2-1.4c1.6,0.3,2.9,1.3,3.7,2.7
		C33.2,12.5,32.9,14.6,31.8,16.8z"/>
</g>
</svg>
